<?xml version="1.0" encoding="UTF-8"?>
<svg width="1200pt" height="1200pt" version="1.1" viewBox="0 0 1200 1200" xmlns="http://www.w3.org/2000/svg">
 <g>
  <path d="m886.8 301.2h3.6016c3.6016 0 6-1.1992 8.3984-3.6016 27.602-28.801 27.602-73.199 18-103.2-2.3984-10.801-8.3984-20.398-15.602-28.801-1.1992-8.3984-4.8008-16.801-9.6016-24-13.199-19.199-38.398-30-74.398-33.602-97.199-8.3984-134.4 80.398-147.6 114-1.1992 3.6016-2.3984 7.1992-4.8008 10.801-8.3984 12-21.602 30-24 33.602-14.398 12-28.801 24-45.602 33.602-54 32.398-100.8 76.801-136.8 129.6-57.602 82.801-76.801 234-76.801 234-1.1992 3.6016-7.1992 20.398-14.398 37.199-46.797 115.2-55.195 150-41.996 162 3.6016 2.3984 7.1992 4.8008 12 4.8008 3.6016 0 7.1992-1.1992 9.6016-2.3984 4.8008-2.3984 10.801-6 14.398-9.6016-33.602 102-69.602 202.8-78 213.6-4.8008 3.6016-7.1992 9.6016-4.8008 15.602 2.3984 4.8008 6 7.1992 10.801 7.1992 3.6016-1.1992 6-2.3984 8.3984-4.8008l1.1992-1.1992c1.1992-1.1992 1.1992-1.1992 2.3984-2.3984 20.398-19.199 37.199-42 51.602-66 0 3.6016 2.3984 7.1992 6 9.6016 4.8008 2.3984 10.801 1.1992 14.398-2.3984 14.398-16.801 26.398-36 36-56.398 1.1992 2.3984 2.3984 3.6016 3.6016 4.8008 3.6016 2.3984 8.3984 3.6016 13.199 1.1992 9.6016-4.8008 54-78 72-183.6 61.199-34.801 120-74.398 175.2-118.8 4.8008 3.6016 9.6016 4.8008 15.602 7.1992l78 76.801c2.3984 2.3984 4.8008 3.6016 8.3984 3.6016 2.3984 0 4.8008-1.1992 7.1992-2.3984l16.801-13.199c4.8008-3.6016 6-10.801 2.3984-16.801l-62.398-91.199c1.1992-6 1.1992-13.199 2.3984-19.199l4.8008-3.6016 67.199 64.801c2.3984 2.3984 4.8008 3.6016 8.3984 3.6016 2.3984 0 4.8008-1.1992 7.1992-2.3984l16.801-13.199c4.8008-3.6016 6-10.801 2.3984-16.801l-54-78c19.199-19.199 36-40.801 50.398-63.602 38.398-62.398 33.602-102 30-139.2-1.1992-10.801-2.3984-21.602-2.3984-32.398 0-15.602 1.1992-31.199 4.8008-46.801 2.4102 7.1836 4.8086 9.5859 9.6094 11.984zm-438 435.6c-19.199 20.398-43.199 44.398-70.801 72-10.801 10.801-22.801 20.398-34.801 30 4.8008-27.602 33.602-99.602 45.602-128.4 6-15.602 10.801-26.398 13.199-32.398 13.199-2.3984 30-16.801 51.602-40.801 0 0 1.1992 0 1.1992 1.1992 4.8008 2.3984 9.6016 3.6016 14.398 3.6016 15.602-1.1992 30-6 43.199-14.398 2.3984 4.8008 6 7.1992 9.6016 9.6016 6 2.3984 12 3.6016 18 2.3984-28.801 31.195-60 64.793-91.199 97.195zm403.2-363.6c7.1992 43.199-1.1992 87.602-26.398 124.8-21.602 36-50.398 67.199-84 91.199 0-6-1.1992-10.801-1.1992-13.199-1.1992-7.1992-7.1992-10.801-13.199-10.801-7.1992 1.1992-10.801 7.1992-10.801 13.199 2.3984 14.398 4.8008 54-6 72-2.3984 3.6016-7.1992 6-12 6-13.199-1.1992-32.398-15.602-45.602-44.398-2.3984-6-8.3984-9.6016-14.398-8.3984-6 2.3984-9.6016 8.3984-8.3984 14.398 0 1.1992 0 1.1992 1.1992 2.3984 3.6016 8.3984 7.1992 15.602 12 22.801-34.801 14.398-69.602 25.199-106.8 32.398 14.398-15.602 28.801-31.199 44.398-48 27.602-30 51.602-56.398 69.602-74.398 74.398-78 151.2-216 100.8-268.8-27.602-28.801-69.602-9.6016-72-8.3984-6 2.3984-8.3984 9.6016-6 16.801 2.3984 6 9.6016 8.3984 16.801 6 0 0 28.801-13.199 44.398 3.6016 15.602 16.801 10.801 52.801-6 93.602-56.398 86.398-123.6 86.398-126 86.398-4.8008 0-9.6016 2.3984-12 7.1992-14.398 31.199-31.199 50.398-51.602 58.801-13.199 4.8008-27.602 4.8008-40.801 0-4.8008-2.3984-12-1.1992-15.602 3.6016-38.398 62.395-62.398 86.395-75.598 95.996 7.1992-44.398 28.801-146.4 69.602-205.2 34.801-49.199 79.199-91.199 130.8-121.2 18-10.801 34.801-22.801 49.199-37.199 0 0 1.1992-1.1992 1.1992-1.1992 1.1992-1.1992 16.801-21.602 25.199-36 2.3984-4.8008 4.8008-9.6016 7.1992-14.398 12-30 40.801-99.602 112.8-99.602h10.801c28.801 2.3984 48 10.801 57.602 24 1.1992 2.3984 3.6016 4.8008 3.6016 8.3984-18 9.6016-33.602 21.602-48 36-1.1992 1.1992-1.1992 2.3984-2.3984 3.6016l-0.007812-1.2031v1.1992c-3.6016 13.199-12 55.199 4.8008 73.199 4.8008 6 13.199 8.3984 20.398 8.3984h6c-3.6016 16.801-4.8008 33.602-4.8008 51.602 0.003906 12 0.003906 24 1.2031 34.801zm0-163.2c10.801-9.6016 21.602-18 34.801-25.199 7.1992 12 10.801 26.398 12 40.801 1.1992 10.801 0 21.602-3.6016 32.398-2.3984-6-7.1992-12-13.199-15.602-10.801-9.5977-21.602-20.398-30-32.398z"/>
  <path d="m795.6 164.4c-7.1992-3.6016-15.602-4.8008-24-3.6016-15.602 3.6016-25.199 19.199-21.602 34.801 0 1.1992 1.1992 2.3984 1.1992 4.8008 6 16.801 24 25.199 40.801 21.602 15.602-3.6016 25.199-19.199 21.602-34.801 0-1.1992-1.1992-2.3984-1.1992-3.6016-2.4023-9.5977-8.4023-15.598-16.801-19.199zm-6 30c-1.1992 1.1992-2.3984 2.3984-3.6016 2.3984-2.3984 0-4.8008 0-7.1992-1.1992-2.3984-1.1992-3.6016-2.3984-4.8008-4.8008-1.1992-1.1992-1.1992-2.3984 0-4.8008 1.1992-1.1992 2.3984-2.3984 3.6016-2.3984l2.3984 0.003906c3.6016 0 8.3984 2.3984 9.6016 6v4.7969z"/>
 </g>
</svg>
